<svg width="36" height="36" viewBox="0 0 36 36" text-anchor="middle" style="font: 16px sans-serif; display: block">
    <path
        d="M 18 7 L 18 0 A 18 18 0 1 1 2.4115427318801075 27.000000000000007 L 8.473720558371177 23.500000000000004 A 11 11 0 1 0 18 7 "
        fill="#fed976"></path>
    <path
        d="M 8.473720558371177 23.500000000000004 L 2.4115427318801075 27.000000000000007 A 18 18 0 0 1 2.4115427318801075 27.000000000000007 L 8.473720558371177 23.500000000000004 A 11 11 0 0 0 8.473720558371177 23.500000000000004 "
        fill="#feb24c"></path>
    <path
        d="M 8.473720558371177 23.500000000000004 L 2.4115427318801075 27.000000000000007 A 18 18 0 0 1 2.4115427318801075 27.000000000000007 L 8.473720558371177 23.500000000000004 A 11 11 0 0 0 8.473720558371177 23.500000000000004 "
        fill="#fd8d3c"></path>
    <path
        d="M 8.473720558371177 23.500000000000004 L 2.4115427318801075 27.000000000000007 A 18 18 0 0 1 2.4115427318801075 27.000000000000007 L 8.473720558371177 23.500000000000004 A 11 11 0 0 0 8.473720558371177 23.500000000000004 "
        fill="#fc4e2a"></path>
    <path
        d="M 8.473720558371177 23.500000000000004 L 2.4115427318801075 27.000000000000007 A 18 18 0 0 1 17.999999999999996 0 L 17.999999999999996 7 A 11 11 0 0 0 8.473720558371177 23.500000000000004 "
        fill="#e31a1c"></path>
    <circle cx="18" cy="18" r="11" fill="white"></circle>
    <text dominant-baseline="central" transform="translate(18, 18)">3</text>
</svg>